<svg id="Layer_1" xmlns="http://www.w3.org/2000/svg" viewBox="0 0 26.2 30.2" width="2169" height="2500"><style>.st0{fill:url(#SVGID_1_)}.st1{fill:url(#SVGID_2_)}.st2{fill:url(#SVGID_3_)}.st3{fill:url(#SVGID_4_)}</style><linearGradient id="SVGID_1_" gradientUnits="userSpaceOnUse" x1="-238.45" y1="441.731" x2="-237.728" y2="442.587" gradientTransform="matrix(12.3321 0 0 -22.2354 2958.496 9848.855)"><stop offset="0" stop-color="#f1e644"/><stop offset=".69" stop-color="#e8c351"/><stop offset="1" stop-color="#c49a30"/></linearGradient><path class="st0" d="M18.2 27.3l-4.4-2.5 8-4.6V5l4.4 2.5v15.1l-8 4.7z"/><linearGradient id="SVGID_2_" gradientUnits="userSpaceOnUse" x1="-244.389" y1="439.942" x2="-243.679" y2="439.053" gradientTransform="matrix(17.4343 0 0 -19.2794 4261.061 8495.339)"><stop offset="0" stop-color="#f1e644"/><stop offset=".69" stop-color="#e8c351"/><stop offset="1" stop-color="#c49a30"/></linearGradient><path class="st1" d="M0 22.7l13.1 7.5 4.4-2.5-13.1-7.6v-9.2L0 13.4v9.3z"/><linearGradient id="SVGID_3_" gradientUnits="userSpaceOnUse" x1="-245.769" y1="429.165" x2="-246.763" y2="428.963" gradientTransform="matrix(21.06 0 0 -12.5822 5196.48 5404.428)"><stop offset="0" stop-color="#f1e644"/><stop offset=".69" stop-color="#e8c351"/><stop offset="1" stop-color="#c49a30"/></linearGradient><path class="st2" d="M21.1 4.6v5l-8-4.6L0 12.6v-5L13.1 0l8 4.6z"/><linearGradient id="SVGID_4_" gradientUnits="userSpaceOnUse" x1="-233.747" y1="434.48" x2="-234.594" y2="435.412" gradientTransform="matrix(10.1051 0 0 -15.6538 2378.134 6824.14)"><stop offset="0" stop-color="#c49a30"/><stop offset=".37" stop-color="#e8c351"/><stop offset=".38" stop-color="#e8c550"/><stop offset=".58" stop-color="#edd749"/><stop offset=".78" stop-color="#f0e245"/><stop offset="1" stop-color="#f1e644"/></linearGradient><path class="st3" d="M11 13.4c.6-.5 1.3-.8 2.1-.8 2.8 0 5 2.2 5 5s-2.2 5.1-5 5.1-5.1-2.2-5.1-5V8.8l3-1.7v6.3zm3.6 5.8c.4-.4.6-.9.6-1.5 0-1.2-.9-2.1-2.1-2.1-.6 0-1.1.2-1.5.6-.4.4-.6.9-.6 1.5 0 1.2.9 2.1 2.1 2.1.5 0 1.1-.2 1.5-.6z"/></svg>