<svg xmlns="http://www.w3.org/2000/svg" baseProfile="tiny-ps" width="601" height="669"><path d="M220.92.4c-.23.21-5.37 1.11-11.42 1.99s-16.4 2.92-23 4.54c-6.6 1.61-16.05 4.35-21 6.08s-16.2 6.62-25 10.87-20.5 10.7-26 14.33S100.22 48.4 95 52.78c-5.23 4.39-16.5 15.12-25.06 23.85-8.55 8.73-18.75 20.14-22.65 25.37-3.91 5.22-9.56 13.55-12.56 18.5S27.35 133.32 25 138c-2.35 4.67-6.21 13.45-8.58 19.5s-5.46 15.27-6.86 20.5c-1.41 5.22-3.45 14.22-4.53 20-1.07 5.77-2.43 15.22-3 21-.63 6.35-1.04 42.7-1.04 92l1.04 92.5c.57 6.05 1.94 16.4 3.05 23 1.12 6.6 3.32 17.17 4.91 23.5 1.58 6.32 4.53 16.22 6.55 22 2.02 5.77 5.65 15 8.06 20.5s7.12 14.95 10.47 21 9.39 15.95 13.44 22 10.9 15.27 15.23 20.5c4.34 5.22 13.03 14.85 19.32 21.39s16.16 16.03 21.94 21.09c5.77 5.06 14.77 12.35 20 16.21 5.22 3.85 13.1 9.25 17.5 12 4.4 2.74 12.27 7.28 17.5 10.07 5.22 2.79 14 6.99 19.5 9.32s15.17 5.99 21.5 8.14c6.32 2.15 16 5.02 21.5 6.36 5.5 1.35 18.1 3.8 28 5.45 16.88 2.81 19.64 2.99 44.5 2.96l26.5-.04c10.85-5.2 15.12-8.01 16.5-9.6 1.37-1.59 5.87-9.18 10-16.87 5.41-10.09 9.03-15.52 13-19.51 3.07-3.09 8.59-7.14 12.5-9.17 3.85-2.01 10.37-4.79 14.5-6.18 4.92-1.66 13.51-3.23 25-4.56 16.33-1.89 18.04-2.29 25.5-5.95 4.74-2.32 10.65-6.34 14.5-9.85 3.57-3.25 7.95-8.13 9.72-10.84s4.64-8.3 6.38-12.42c2.83-6.71 3.25-9.02 4-22 .57-9.98 1.5-16.68 2.98-21.5 1.18-3.85 3.61-9.93 5.4-13.5 1.79-3.58 5.56-9.31 8.38-12.75 3.56-4.33 7.37-7.54 12.39-10.45 3.99-2.31 10.85-5.43 15.25-6.93 5.17-1.77 12.95-3.31 22-4.34 7.7-.88 15.8-2.08 18-2.67s6.47-2.32 9.5-3.85c3.02-1.52 7.64-4.4 10.25-6.39s6.66-5.7 9-8.24c2.34-2.55 5.49-6.49 7.01-8.75 1.51-2.27 3.65-6.49 4.75-9.38 1.09-2.89 2.28-8.29 2.63-12 .37-3.91.16-8.86-.49-11.75-.78-3.44-2.45-6.52-5.39-9.88-2.34-2.69-5.39-5.45-6.76-6.13-1.38-.69-7.23-2.93-13-4.99-5.78-2.06-13.2-5.11-16.5-6.77-3.3-1.65-9.15-5.15-13-7.77-3.85-2.63-9.32-7.18-12.15-10.12-2.84-2.93-7.31-8.72-9.94-12.84-2.63-4.13-5.88-9.98-7.22-13-1.34-3.03-3.53-8.65-4.86-12.5s-3.04-9.93-3.79-13.5c-.95-4.49-1.57-18.56-2.01-45.5-.35-21.45-1.09-43.28-1.65-48.5-.55-5.23-2.13-15.13-3.5-22-1.37-6.88-3.65-16.55-5.08-21.5-1.42-4.95-4.57-13.95-7-20-2.42-6.05-6.7-15.28-9.49-20.5-2.8-5.23-7.56-13.33-10.59-18-3.03-4.68-8.24-12.1-11.59-16.5s-14.42-16.34-24.61-26.53C421.84 62.78 409 51.06 403.5 46.92s-14.5-10.18-20-13.42-15.06-8.28-21.25-11.2c-6.19-2.91-15.86-6.9-21.5-8.86-5.64-1.97-15.43-4.83-21.75-6.38-6.33-1.54-15.55-3.35-20.5-4.02S287.36 1.42 284.75.91C282.14.41 266.8 0 250.67 0l-29.75.4z" fill="#303344"/><path d="M230 24.16c-4.68.41-13 1.5-18.5 2.42s-15.96 3.41-23.25 5.54c-7.29 2.14-17.41 5.51-22.5 7.5S152 45.51 146.5 48.29c-5.5 2.77-15.63 8.74-22.5 13.27-6.88 4.53-16.55 11.69-21.5 15.91S90.01 88.83 85.75 93.32c-4.27 4.5-11.06 12.45-15.1 17.68-4.04 5.22-9.74 13.32-12.66 18-2.92 4.67-7.91 13.67-11.09 20-3.18 6.32-7.41 16-9.4 21.5-2 5.5-4.94 14.95-6.54 21-1.61 6.05-3.94 16.62-5.19 23.5-2.24 12.34-2.27 13.57-2.27 95 0 73.97.19 83.79 1.79 95 .99 6.87 3.12 18.57 4.73 26 1.62 7.42 4.93 19.35 7.35 26.5s5.83 16.37 7.56 20.5c1.74 4.12 5.66 12.22 8.72 18 3.05 5.77 8.32 15.15 11.7 20.83s10.25 15.58 15.25 22c5.01 6.42 13.56 16.35 19 22.07 5.45 5.73 15.52 15.09 22.4 20.81 6.87 5.71 17.45 13.69 23.5 17.73 6.05 4.03 17.07 10.51 24.5 14.4 7.42 3.88 18 8.83 23.5 10.99s13.37 5.08 17.5 6.49c4.12 1.41 10.65 3.48 14.5 4.6s9.25 2.49 12 3.06l12.5 2.43c4.13.77 9.97 1.71 13 2.1 3.02.38 8.87 1.03 13 1.44 4.12.41 15.26.81 24.75.9L318 646c2.32-4.65 3-6.23 3-6.5 0-.28-.56-.25-1.25.05s-5.08-.42-9.75-1.6c-4.68-1.18-10.08-2.74-12-3.47l-10-3.84a320.62 320.62 0 0 1-12.5-5.18c-3.3-1.46-16.13-7.42-28.5-13.23-12.38-5.81-27.45-13.23-33.5-16.49s-15.28-8.73-20.5-12.16c-5.23-3.42-13.55-9.48-18.5-13.45-4.95-3.98-13.67-11.37-19.38-16.43s-13.82-13.48-18.03-18.7c-4.2-5.23-10.09-13.55-13.07-18.5-2.99-4.95-7.98-14.4-11.1-21s-8.18-18.3-11.25-26c-3.06-7.7-6.67-17.83-8.01-22.5-1.34-4.68-3.16-12.78-4.04-18-.88-5.23-2.34-15.58-3.25-23-1.3-10.75-1.72-26.41-2.07-77l.45-67.5c.8-3.67.57-4.45-2.87-9.5-2.06-3.03-5.3-8.88-7.18-13-1.89-4.13-4.26-10.88-5.27-15-1.24-5.07-1.82-11.07-1.78-18.5.03-7.02.69-13.54 1.81-18 .97-3.85 3.42-10.6 5.45-15s5.08-10.03 6.77-12.5c1.69-2.48 5.94-7.37 9.45-10.87 3.5-3.5 9.74-8.57 13.87-11.27 4.12-2.69 8.85-5.36 10.5-5.93 2.26-.78 3.66-2.43 5.69-6.73 1.48-3.14 6.36-10.65 10.86-16.7 4.49-6.05 12.33-15.95 17.43-22 5.09-6.05 12.36-13.93 16.15-17.5 3.79-3.58 11.83-10.37 17.88-15.1 6.04-4.72 13.46-10.2 16.49-12.18 3.02-1.97 12.92-6.58 22-10.25l17-7.07c.27-.22.27-.53 0-.69-.28-.16-4.33.04-9 .45z" fill="#a6b6b7"/><path d="M223.5 30.84c-10.45 4.27-21.25 9.28-24 11.14s-9.95 7.23-15.99 11.95c-6.05 4.71-14.1 11.49-17.89 15.07-3.79 3.57-11.42 11.9-16.94 18.5-5.53 6.6-13.12 16.16-16.87 21.25-3.74 5.09-8.15 11.61-9.79 14.5s-2.98 5.7-2.97 6.25c0 .58 2.32.26 5.48-.75 3.01-.96 9.63-2.27 14.72-2.91 7.14-.89 11.3-.88 18.25.07 4.95.67 12.37 2.34 16.5 3.71 4.12 1.37 10.42 4.22 14 6.33 3.57 2.11 9.16 6.02 12.41 8.69 3.24 2.67 8.12 7.78 10.83 11.36 2.72 3.57 6.91 10.55 9.32 15.5 2.4 4.95 5.04 11.92 5.86 15.5.82 3.57 1.79 9.42 2.15 13 .37 3.57.17 10.32-.44 15-.61 4.67-2.05 11.42-3.2 15-1.16 3.57-3.45 9.2-5.1 12.5s-5.39 9.15-8.3 13-8.16 9.39-11.66 12.31c-3.51 2.92-10.87 7.5-16.37 10.18-5.66 2.75-13.48 5.63-18 6.62-4.83 1.06-11.96 1.73-18 1.7-5.5-.03-13.26-.79-17.25-1.68-3.99-.9-10.51-3.12-14.5-4.93-3.99-1.82-9.73-4.94-12.75-6.94-3.03-2-8.09-6.14-11.25-9.2s-6.09-5.3-6.5-4.98c-.41.33-.73 30.14-.72 66.25.03 55.67.3 67.88 1.76 80.17.95 7.97 2.44 18.77 3.32 24 .89 5.22 2.71 13.32 4.05 18 1.34 4.67 4.95 14.8 8.01 22.5 3.07 7.7 8.13 19.4 11.25 26s8.11 16.05 11.1 21c2.98 4.95 8.87 13.27 13.07 18.5 4.21 5.22 12.32 13.64 18.03 18.7s14.43 12.45 19.38 16.43c4.95 3.97 13.27 10.03 18.5 13.45 5.22 3.43 14.45 8.9 20.5 12.16s21.12 10.68 33.5 16.49l28.5 13.23a320.62 320.62 0 0 0 12.5 5.18l10 3.84c1.92.73 7.32 2.29 12 3.46 4.67 1.17 9.29 1.89 10.25 1.6.96-.3 1.68-.88 1.59-1.29s.19-1.65.61-2.75c.41-1.1 1.72-4.01 2.9-6.46s4.67-8.07 7.76-12.5c3.08-4.42 8.26-10.46 11.5-13.43 3.24-2.96 7.69-6.62 9.89-8.12 2.2-1.51 7.15-4.37 11-6.36s10.82-4.51 15.5-5.6c4.67-1.09 12.55-2.18 17.5-2.43 4.95-.24 11.25-.96 14-1.59 2.75-.64 7.47-2.34 10.5-3.78 3.06-1.46 7.94-5.12 11-8.25 3.02-3.1 6.06-6.38 6.75-7.3.69-.93 2.1-3.59 3.13-5.93 1.04-2.34 2.63-7.85 3.53-12.25s1.39-8.68 1.07-9.5c-.31-.83-.12-4.2.43-7.5l1.46-9c.26-1.65 1.43-5.7 2.6-9s3.47-8.48 5.1-11.5c1.63-3.03 4.87-8.04 7.2-11.15 2.32-3.11 5.83-7.38 7.8-9.5 1.96-2.12 5.03-4.98 6.83-6.35 1.8-1.38 3.88-3.06 4.61-3.75.74-.69 1.83-1.25 2.42-1.25s1.07-.45 1.07-1 .64-1 1.43-1c.78 0 2.02-.58 2.75-1.28.73-.71 5.14-2.79 9.82-4.63 4.67-1.85 10.07-3.57 12-3.84 1.92-.27 4.51-.88 5.75-1.37 1.24-.48 2.25-1.33 2.25-1.88s-.34-.93-.75-.84-1.99-.36-3.5-1-3.09-1.15-3.5-1.14-5.25-1.93-10.75-4.32c-5.5-2.38-12.81-5.99-16.25-8.02-3.44-2.02-6.48-3.68-6.75-3.68-.28 0-1.96-1.02-3.75-2.26s-5.95-4.28-9.24-6.75c-3.3-2.47-7.68-6.18-9.75-8.24S453.55 408 453 408s-3.76-3.49-7.13-7.75-7.36-10.23-8.86-13.25c-1.5-3.03-3.68-8.43-4.84-12-1.16-3.58-2.54-8.53-3.07-11-.54-2.48-1.22-7.2-1.53-10.5s-.79-10.05-1.07-15l-.97-18-1.08-24-.95-20-1.01-17.5-.84-12.76c-.08-.15-2.46 2.78-5.29 6.5s-8 9.39-11.5 12.6-9.51 7.7-13.36 9.98-10.6 5.36-15 6.86c-4.4 1.49-11.83 3.22-16.5 3.85-6.35.85-10.9.85-18 0-5.23-.63-12.87-2.27-17-3.66-4.13-1.38-9.98-3.91-13-5.61-3.03-1.71-7.3-4.47-9.5-6.13-2.2-1.67-6.21-5.31-8.92-8.08-2.7-2.78-6.59-7.3-8.64-10.05s-5.12-7.81-6.83-11.25-4.09-9.74-5.29-14c-1.73-6.19-2.18-10.47-2.2-21.25-.01-10.94.4-14.97 2.18-21.25 1.21-4.26 3.61-10.56 5.33-14 1.73-3.44 4.54-8.28 6.25-10.75 1.71-2.48 6.04-7.46 9.61-11.09 3.58-3.62 8.76-8.1 11.51-9.95 2.75-1.84 8.15-4.78 12-6.53 3.85-1.74 10.37-4.01 14.5-5.03 5.22-1.29 11-1.84 19-1.81 7.59.04 13.71.64 18 1.78 3.57.96 9.2 2.87 12.5 4.26l7.81 3.2c1.7.63 1.72.4.44-3.83-.76-2.48-3.76-9-6.67-14.5s-8.72-15.18-12.91-21.5c-5.06-7.63-10.99-14.87-17.65-21.51-5.51-5.51-11.26-11.03-12.77-12.25-1.51-1.23-5.56-4.2-9-6.59s-9.18-6.02-12.75-8.05c-3.58-2.03-10.55-5.64-15.5-8.01l-14.75-6.95c-3.16-1.45-6.09-2.65-6.5-2.67-.41-.01-1.43-.67-2.25-1.47-.83-.8-4.99-2.14-9.25-2.97-4.26-.84-12.14-1.51-17.5-1.49l-9.75.03-19 7.77z" fill="#bfd2d3"/><path d="M278.5 26.78c.55.57 5.72 3.19 11.5 5.82 5.77 2.64 14.77 7 20 9.71 5.22 2.71 13.1 7.28 17.5 10.15s10.02 6.92 12.5 8.99c2.47 2.08 7.76 6.88 11.75 10.66 3.99 3.79 7.24 7.23 7.22 7.64s.93 1.65 2.12 2.75 5.59 7.17 9.79 13.5c4.2 6.32 10.21 16.67 13.36 23 3.14 6.32 5.84 12.62 5.99 14 .18 1.69 1.72 3.48 4.74 5.5 2.46 1.65 7.14 5.47 10.39 8.5 3.25 3.02 7.83 8.2 10.16 11.5s5.6 8.7 7.25 12 3.99 9.15 5.21 13c1.44 4.6 2.39 10.78 2.75 18 .34 6.96.07 13.57-.74 18-.7 3.85-2.35 10.15-3.67 14-1.31 3.85-2.97 7.9-3.69 9-.98 1.52-1.09 4.15-.46 11a577.14 577.14 0 0 1 1.29 17c.24 4.4.7 16.1 1.01 26 .3 9.9.85 19.57 1.21 21.5.36 1.92.8 7.32.97 12l.33 13c0 2.47.48 8.55 1.06 13.5s2.42 13.05 4.08 18 4.45 11.69 6.2 14.98c1.96 3.69 6.81 9.64 12.68 15.56 5.22 5.28 13.32 12.42 18 15.88 4.67 3.45 12.77 8.68 18 11.61 5.22 2.93 13.32 6.89 18 8.8 4.67 1.91 10.48 4.08 12.89 4.82 2.42.74 4.56 1.91 4.75 2.6.22.76 2.12 1.25 4.86 1.25 2.47 0 7.99-.71 12.25-1.58s10.56-2.9 14-4.5c3.55-1.66 8.56-5.19 11.6-8.17 2.94-2.89 6.54-7.61 8-10.5s2.54-6.26 2.4-7.5c-.2-1.81-1.42-2.6-6.25-4.07-3.3-1-9.15-2.97-13-4.36-3.85-1.4-11.28-5.07-16.5-8.15-5.23-3.09-13.1-8.63-17.5-12.31-4.4-3.69-10.48-9.67-13.5-13.31-3.03-3.63-7.76-10.3-10.53-14.82-2.77-4.53-6.54-11.83-8.38-16.23s-4.48-12.28-5.87-17.5c-2.45-9.23-2.54-10.77-3.25-54.5-.64-39.45-1-46.54-2.9-57.5-1.19-6.88-3.3-17-4.7-22.5s-4.36-14.95-6.58-21c-2.23-6.05-6.46-15.84-9.42-21.75-2.95-5.91-7.68-14.46-10.51-19s-8.34-12.52-12.25-17.74c-3.91-5.21-11.39-13.94-16.61-19.38-5.23-5.44-13.55-13.29-18.5-17.44-4.95-4.16-13.73-10.69-19.5-14.52-5.78-3.83-17.25-10.25-25.5-14.27s-21.08-9.35-28.5-11.83c-7.43-2.49-17.55-5.43-22.5-6.53-4.95-1.11-12.83-2.3-17.5-2.65-5.86-.45-8.19-.32-7.5.39z" fill="#768182"/><path d="M140 125.65l-8.5 1.47c-3.3.61-9.15 2.31-13 3.78s-10.15 4.75-14 7.28-9.87 7.46-13.37 10.96c-3.51 3.5-7.76 8.38-9.45 10.86-1.69 2.47-4.74 8.1-6.77 12.5s-4.48 11.15-5.45 15c-1.12 4.46-1.78 10.98-1.81 18-.04 7.33.55 13.5 1.75 18.5.99 4.12 3.74 11.55 6.1 16.5 2.37 4.95 6.39 11.7 8.94 15s7.65 8.59 11.35 11.76c3.87 3.32 10.95 7.86 16.71 10.73 5.64 2.8 13.27 5.69 17.5 6.62 4.12.9 12 1.67 17.5 1.7 6.04.03 13.17-.64 18-1.7 4.52-.99 12.34-3.87 18-6.62 5.5-2.68 12.86-7.26 16.37-10.18 3.5-2.92 8.75-8.46 11.66-12.31s6.65-9.7 8.3-13 3.94-8.93 5.1-12.5c1.15-3.58 2.59-10.33 3.2-15 .61-4.68.81-11.43.44-15-.36-3.58-1.33-9.43-2.15-13-.82-3.58-3.46-10.55-5.86-15.5-2.41-4.95-6.61-11.93-9.33-15.5-2.73-3.58-7.15-8.35-9.84-10.62-2.69-2.26-7.82-5.95-11.39-8.2-3.58-2.25-9.54-5.23-13.25-6.63s-10.69-3.23-15.5-4.06-11-1.44-13.75-1.36-6.13.31-7.5.52zm201.5.02c-1.65.21-6.15 1.1-10 1.98-3.85.89-10.15 3.04-14 4.78-3.85 1.75-9.25 4.69-12 6.53-2.75 1.85-7.93 6.33-11.51 9.95-3.57 3.63-7.9 8.61-9.61 11.09-1.71 2.47-4.52 7.31-6.25 10.75-1.72 3.44-4.12 9.74-5.33 14-1.78 6.28-2.19 10.31-2.18 21.25.02 10.78.47 15.06 2.2 21.25 1.2 4.26 3.58 10.56 5.29 14s4.78 8.5 6.83 11.25 5.94 7.27 8.64 10.05c2.71 2.77 6.72 6.41 8.92 8.08 2.2 1.66 6.47 4.42 9.5 6.13 3.02 1.7 8.87 4.23 13 5.61 4.13 1.39 11.77 3.03 17 3.66 7.1.85 11.65.85 18 0 4.67-.63 12.1-2.36 16.5-3.85 4.4-1.5 11.15-4.58 15-6.86s9.85-6.77 13.33-9.98c3.49-3.21 8.06-8.09 10.16-10.84s5.05-7.25 6.57-10c1.51-2.75 3.75-7.93 4.96-11.5 1.21-3.58 2.77-9.65 3.47-13.5.81-4.43 1.08-11.04.74-18-.36-7.22-1.31-13.4-2.75-18-1.22-3.85-3.57-9.7-5.23-13s-4.4-8.03-6.09-10.5c-1.69-2.48-5.12-6.7-7.62-9.38s-7.02-6.78-10.04-9.11c-3.03-2.33-8.2-5.58-11.5-7.23s-8.93-3.96-12.5-5.12c-3.58-1.17-9.65-2.57-13.5-3.12s-9.25-.94-12-.87-6.35.3-8 .5z" fill="#303344"/><path d="M136.5 166.14c-3.3 1.14-8.45 3.71-11.45 5.71-3.05 2.05-7.37 6.29-9.81 9.65-2.53 3.47-5.19 8.74-6.33 12.5-1.07 3.57-1.95 9.2-1.95 12.5s.9 8.92 2 12.5c1.11 3.57 2.92 7.85 4.02 9.5 1.11 1.65 4.16 5.18 6.77 7.84s7.45 6.16 10.75 7.79c3.55 1.75 8.56 3.25 12.26 3.67l6.26.7L149 164c-5.04.05-9.2 1-12.5 2.14z" fill="#52d784"/><path d="M336.41 165.78c-2.8.95-7.52 3.38-10.5 5.4s-6.96 5.62-8.86 8-4.48 6.57-5.74 9.32c-1.25 2.75-2.78 7.7-3.4 11-.83 4.44-.83 7.69 0 12.5.62 3.57 2.28 8.97 3.69 12 1.41 3.02 3.95 7.07 5.64 9 1.69 1.92 5.37 5.22 8.17 7.32 2.82 2.12 7.98 4.69 11.59 5.77 3.57 1.07 7.74 1.94 9.25 1.93L349 248v-84c-5.81.05-9.79.84-12.59 1.78z" fill="#60d5dc"/></svg>